<svg width="500" height="439" viewBox="0 0 500 439" fill="none" xmlns="http://www.w3.org/2000/svg">
<g clip-path="url(#clip0_611_369)">
<path d="M397.478 351.034C391.798 351.034 387.226 346.462 387.226 340.782C387.226 335.102 391.798 330.53 397.478 330.53C403.159 330.53 407.731 335.102 407.731 340.782C407.731 346.462 403.159 351.034 397.478 351.034Z" fill="#FCFCFC"/>
<path d="M205.043 438.454C196.73 438.454 188.695 435.961 181.906 431.389C174.979 426.817 169.715 420.305 166.528 412.686C163.342 405.066 162.51 396.753 164.173 388.579C165.835 380.405 169.715 373.062 175.533 367.244C181.352 361.425 188.833 357.407 196.869 355.883C205.043 354.221 213.355 355.052 220.975 358.238C228.595 361.425 235.107 366.689 239.679 373.617C244.25 380.544 246.744 388.579 246.744 396.753C246.744 407.837 242.449 418.366 234.552 426.263C226.656 434.16 216.265 438.454 205.043 438.454ZM205.043 371.816C200.055 371.816 195.206 373.339 191.189 375.972C187.032 378.743 183.846 382.622 181.906 387.194C179.967 391.766 179.551 396.753 180.521 401.602C181.491 406.451 183.846 410.884 187.309 414.348C190.773 417.812 195.206 420.167 200.055 421.137C204.904 422.106 209.892 421.552 214.464 419.751C219.036 417.812 222.915 414.625 225.686 410.469C228.457 406.313 229.842 401.602 229.842 396.615C229.842 389.965 227.21 383.592 222.499 378.881C218.066 374.448 211.693 371.816 205.043 371.816Z" fill="#FCFCFC"/>
<path d="M405.929 436.792H389.304V368.629C389.304 366.412 390.135 364.334 391.798 362.672C393.322 361.148 395.4 360.178 397.755 360.178C399.972 360.178 402.05 361.009 403.713 362.672C405.237 364.196 406.206 366.274 406.206 368.629V436.792H405.929Z" fill="#FCFCFC"/>
<path d="M371.987 436.93H355.362V386.778C355.362 382.899 353.7 379.297 351.067 376.526C348.296 373.755 344.694 372.231 340.815 372.231H340.677C336.797 372.231 333.195 373.617 330.424 376.249C327.654 378.881 325.991 382.483 325.853 386.362V436.93H309.089V386.362C308.95 382.483 307.288 379.02 304.378 376.387C301.608 373.755 298.005 372.37 294.126 372.37H293.988C290.109 372.37 286.506 373.894 283.736 376.664C280.965 379.297 279.441 382.899 279.302 386.778V436.93H262.539V386.778C262.539 380.267 264.478 374.171 268.219 368.768C271.959 363.503 277.086 359.485 283.043 357.13C289.139 354.913 295.65 354.498 301.885 356.022C307.98 357.546 313.245 360.732 317.54 365.304C320.449 362.117 323.913 359.762 327.792 357.961C331.81 356.16 336.243 355.19 340.677 355.19C349.128 355.19 357.025 358.515 362.982 364.473C368.939 370.43 372.264 378.327 372.264 386.778V436.93H371.987Z" fill="#FCFCFC"/>
<path d="M463.286 438.593C459.961 438.593 456.636 438.177 453.311 437.346C444.445 435.129 436.548 430.142 430.867 423.076C425.187 416.011 421.862 407.144 421.585 398.139C421.308 389.133 424.079 379.99 429.343 372.647C434.608 365.304 442.367 359.762 450.956 357.13C459.684 354.498 469.105 354.636 477.556 357.823C486.146 361.009 493.489 366.828 498.338 374.448L498.753 375.002L484.345 383.315L484.068 382.899C481.02 378.466 476.586 375.002 471.46 373.201C466.334 371.4 460.654 371.4 455.528 373.201C450.402 374.863 445.83 378.327 442.782 382.76C439.734 387.194 438.21 392.597 438.349 398.139C438.626 403.542 440.704 408.806 444.168 412.963C447.631 417.119 452.48 420.028 457.745 421.275C463.009 422.522 468.69 421.968 473.539 419.751C478.526 417.535 482.682 413.655 485.315 408.945L485.592 408.391L500 416.703L499.723 417.257C495.29 425.154 488.224 431.527 479.912 435.129C474.785 437.346 469.105 438.593 463.286 438.593Z" fill="#FCFCFC"/>
<path d="M139.651 438.454C139.513 438.454 139.374 438.454 139.235 438.454C126.628 438.454 116.237 427.787 116.237 414.902V373.894H105.985C103.769 373.894 101.69 373.062 100.028 371.4C98.504 369.876 97.5342 367.798 97.5342 365.443C97.5342 363.226 98.3654 361.148 100.028 359.485C101.552 357.961 103.63 356.991 105.985 356.991H116.376V345.215C116.376 342.999 117.207 340.921 118.87 339.258C120.394 337.734 122.61 336.764 124.827 336.764C127.044 336.764 129.122 337.596 130.784 339.258C132.308 340.782 133.278 342.999 133.278 345.215V356.991H151.566V373.617H133.278V414.625C133.278 418.366 136.188 421.414 139.651 421.414C143.946 421.414 148.102 420.721 152.12 419.336L152.813 419.058L152.951 419.751L156.692 435.406L156.138 435.545C150.596 437.623 145.193 438.454 139.651 438.454Z" fill="#FCFCFC"/>
<path d="M0 436.792L0.415632 435.961L43.918 335.794C44.6107 334.132 45.5805 332.885 47.1044 331.915C50.0138 329.976 53.893 329.976 56.8024 331.915C58.1878 332.885 59.2962 334.271 59.9889 335.794L103.907 436.792H85.6193L85.4807 436.376L76.1984 414.902L27.847 415.041L18.4262 436.792H0ZM51.9534 359.347L35.0513 398.416L68.9942 398.277L51.9534 359.347Z" fill="#FCFCFC"/>
<path d="M198.789 30.4306L120.024 166.883C114.615 175.897 111.842 185.742 111.842 196.42C111.842 228.453 137.912 254.385 169.807 254.385H328.863C339.402 254.385 349.663 251.75 358.4 246.758L358.816 246.48C372.128 238.854 381.558 226.512 385.579 211.674C389.601 196.697 387.521 181.028 379.755 167.577L300.158 29.7373C294.749 20.3076 287.261 12.6807 278.525 7.82722C265.074 0.0616285 249.404 -2.01844 234.427 2.00303C219.451 6.0245 207.109 15.5928 199.482 28.9053L198.789 30.4306ZM329.695 234.416C326.367 234.416 323.038 234 319.849 233.029C310.142 230.395 302.099 224.154 297.107 215.418C292.947 208.207 291.421 200.026 292.531 191.705V191.567L305.982 79.7976L362.56 177.838C372.683 195.865 366.304 218.885 348.554 229.147C342.868 232.752 336.351 234.416 329.695 234.416ZM283.101 234.416H169.807C149.006 234.416 132.088 217.498 132.088 196.697C132.088 175.897 149.006 158.979 169.807 158.979C177.988 158.979 185.893 161.614 192.687 166.744L283.101 234.416ZM270.898 200.026L196.57 144.141L281.992 107.809L270.898 200.026ZM160.793 137.346L217.371 39.3056C227.91 21.2783 250.929 15.1768 268.818 25.5771C286.568 36.1162 292.808 59.2743 282.546 77.3015C278.386 84.6511 272.146 90.0593 264.519 93.2487L160.793 137.346Z" fill="#3183FF"/>
</g>
<defs>
<clipPath id="clip0_611_369">
<rect width="500" height="438.593" fill="white"/>
</clipPath>
</defs>
</svg>
